<svg width="1440" height="38" viewBox="0 0 1440 38" fill="none" xmlns="http://www.w3.org/2000/svg">
<path d="M0 19H697.503" stroke="#087A2E" stroke-width="5"/>
<path d="M743 19H1440.5" stroke="#087A2E" stroke-width="5"/>
<path d="M737.299 19C737.299 28.4156 729.666 36.0485 720.25 36.0485C710.834 36.0485 703.201 28.4156 703.201 19C703.201 9.58441 710.834 1.95147 720.25 1.95147C729.666 1.95147 737.299 9.58441 737.299 19ZM720.25 37.2929C730.353 37.2929 738.543 29.1028 738.543 19C738.543 8.89717 730.353 0.707048 720.25 0.707048C710.147 0.707048 701.957 8.89717 701.957 19C701.957 29.1028 710.147 37.2929 720.25 37.2929Z" fill="#087A2E" stroke="#087A2E" stroke-width="0.585903"/>
<path d="M719.89 1.96878L719.721 1.96969L719.637 2.11522L714.686 10.6893L714.539 10.943L714.793 11.0895L715.337 11.4033L715.591 11.5498L715.737 11.2961L720.169 3.62123L724.592 11.0975L724.741 11.3496L724.994 11.2006L725.534 10.8811L725.786 10.7319L725.637 10.4797L720.685 2.10963L720.6 1.96493L720.432 1.96584L719.89 1.96878ZM706.576 26.9218L710.988 19.4677L711.138 19.2155L710.885 19.0663L710.345 18.7466L710.093 18.5974L709.944 18.8495L704.989 27.2195L704.902 27.366L704.987 27.5139L705.257 27.9877L705.341 28.1355H705.511H734.815H734.985L735.069 27.9877L735.339 27.514L735.424 27.3661L735.337 27.2195L730.382 18.8495L730.233 18.5974L729.981 18.7466L729.441 19.0663L729.189 19.2155L729.338 19.4677L733.75 26.9218H706.576Z" fill="#087A2E" stroke="#087A2E" stroke-width="0.585903"/>
<path d="M719.909 36.4636L720.163 36.9028L720.416 36.4636L735.28 10.7256L735.534 10.2862H735.027H705.299H704.791L705.045 10.7256L719.909 36.4636ZM706.894 11.5H733.432L720.163 34.4756L706.894 11.5Z" fill="#087A2E" stroke="#087A2E" stroke-width="0.585903"/>
<path d="M720.417 10.6421L720.163 10.2028L719.909 10.6421L712.658 23.1971L712.405 23.6365H712.912H727.414H727.921L727.667 23.1971L720.417 10.6421ZM725.818 22.4229H714.507L720.163 12.6298L725.818 22.4229Z" fill="#087A2E" stroke="#087A2E" stroke-width="0.585903"/>
<path d="M720.48 19.2586L720.73 19.1063L720.578 18.856L720.251 18.3198L720.099 18.0697L719.849 18.2219L705.406 27.0103L705.156 27.1626L705.308 27.4129L705.635 27.9493L705.787 28.1995L706.037 28.0472L720.48 19.2586Z" fill="#087A2E" stroke="#087A2E" stroke-width="0.585903"/>
<path d="M719.751 18.8584L719.6 19.1096L719.851 19.2603L734.503 28.0487L734.754 28.1994L734.905 27.9483L735.228 27.4101L735.379 27.1588L735.127 27.0081L720.476 18.2195L720.224 18.0688L720.074 18.32L719.751 18.8584Z" fill="#087A2E" stroke="#087A2E" stroke-width="0.585903"/>
<path d="M720.769 2.20898V1.91603H720.477H719.849H719.556V2.20898V18.7397V19.0327H719.849H720.477H720.769V18.7397V2.20898Z" fill="#087A2E" stroke="#087A2E" stroke-width="0.585903"/>
</svg>
