<svg width="192" height="36" viewBox="0 0 192 36" fill="none" xmlns="http://www.w3.org/2000/svg">
<mask id="path-1-outside-1_612_313" maskUnits="userSpaceOnUse" x="0" y="0" width="192" height="36" fill="black">
<rect fill="white" width="192" height="36"/>
<path d="M44.0175 29.8766L45.0724 8.48277H46.2479L55.1395 29.0026L64.0609 8.48277H65.2364L66.1708 29.8766H65.357L64.4226 9.7484L55.6217 29.8766H54.6269L45.8862 9.80855L44.8917 29.8766H44.0175Z"/>
<path d="M82.5502 9.2663H72.2724V18.5771H82.4598V19.3604H72.2724V29.0931H83.0626L82.9119 29.8766H71.368V8.48277H82.5502V9.2663Z"/>
<path d="M101.222 28.7916L101.433 29.4847C101.192 29.6656 100.931 29.7961 100.65 29.8766C100.368 29.9367 100.057 29.9668 99.7153 29.9668C99.0322 29.9668 98.4093 29.8162 97.8465 29.515C97.284 29.1935 96.6712 28.5506 96.008 27.5864L91.2759 20.7164C91.075 20.415 90.7636 20.1138 90.3415 19.8124C89.9197 19.5112 89.3872 19.3604 88.7441 19.3604H87.9907V29.8766H87.0864V8.48277H92.5419C94.712 8.48277 96.3598 8.96487 97.4848 9.92907C98.6303 10.8732 99.203 12.1589 99.203 13.7861C99.203 15.4735 98.6101 16.8293 97.4247 17.8539C96.2591 18.8581 94.6317 19.3604 92.5419 19.3604H90.824C91.1454 19.4809 91.4467 19.6919 91.7281 19.9933C92.0094 20.2945 92.3309 20.7063 92.6925 21.2286L96.4602 26.773C96.9424 27.4559 97.3342 27.9783 97.6357 28.3398C97.9571 28.6813 98.2785 28.9122 98.6002 29.0327C98.9216 29.1532 99.3236 29.2136 99.8058 29.2136C100.087 29.2136 100.338 29.1733 100.559 29.0931C100.8 28.9927 101.021 28.8923 101.222 28.7916ZM92.4514 9.29637H87.9907V18.5771H92.3008C94.2096 18.5771 95.6764 18.1752 96.7013 17.3718C97.7461 16.5681 98.2686 15.4131 98.2686 13.9066C98.2686 12.5205 97.8164 11.4057 96.9124 10.562C96.008 9.7181 94.5211 9.29637 92.4514 9.29637Z"/>
<path d="M103.334 29.8766V8.48277H104.269V18.788L114.999 8.48277H116.235L105.203 19.0291C105.826 19.29 106.459 19.8927 107.102 20.837L111.292 26.9236C111.934 27.8677 112.477 28.4904 112.919 28.7916C113.381 29.0729 113.894 29.2136 114.456 29.2136C114.959 29.2136 115.441 29.0729 115.903 28.7916L116.144 29.4847C115.682 29.8063 115.099 29.9668 114.396 29.9668C113.672 29.9668 113.03 29.7961 112.467 29.4547C111.924 29.0931 111.342 28.4703 110.719 27.5864L106.137 20.9272C105.856 20.5256 105.565 20.2242 105.263 20.0234C104.962 19.8226 104.63 19.702 104.269 19.6618V29.8766H103.334Z"/>
<path d="M116.185 29.8766L124.866 8.48277H125.74L134.059 29.8766H133.094L130.623 23.4282H119.742L117.15 29.8766H116.185ZM120.074 22.6148H130.291L125.318 9.62787L120.074 22.6148Z"/>
<path d="M137.86 29.8766V8.48277H142.05C144.22 8.48277 145.948 8.7037 147.234 9.14577C148.52 9.5675 149.434 10.1903 149.977 11.0138C150.539 11.8175 150.821 12.7916 150.821 13.9367C150.821 15.2222 150.449 16.3172 149.705 17.221C148.982 18.1049 147.917 18.7075 146.51 19.0291C147.937 19.3504 149.042 19.9933 149.826 20.9575C150.63 21.9217 151.031 23.0467 151.031 24.3322C151.031 26.2206 150.439 27.6167 149.253 28.5205C148.088 29.4246 146.51 29.8766 144.521 29.8766H137.86ZM142.019 9.29637H138.764V18.6675H143.135C145.345 18.6675 147.023 18.2858 148.168 17.5224C149.313 16.7389 149.886 15.5438 149.886 13.9367C149.886 12.2693 149.263 11.0841 148.017 10.3811C146.792 9.65795 144.792 9.29637 142.019 9.29637ZM138.764 29.063H144.431C146.179 29.063 147.555 28.6912 148.56 27.948C149.585 27.1848 150.097 25.9795 150.097 24.3322C150.097 22.7452 149.565 21.5499 148.5 20.7465C147.435 19.923 145.918 19.5112 143.948 19.5112H138.764V29.063Z"/>
<path d="M153.772 29.8766L162.453 8.48277H163.327L171.645 29.8766H170.681L168.209 23.4282H157.329L154.737 29.8766H153.772ZM157.66 22.6148H167.878L162.905 9.62787L157.66 22.6148Z"/>
<path d="M175.448 29.8766V8.48277H176.382V18.5468H190.066V8.48277H191V29.8766H190.066V19.3907H176.382V29.8766H175.448Z"/>
<path fill-rule="evenodd" clip-rule="evenodd" d="M18.1634 34.6892C27.2956 34.6892 34.6988 27.2881 34.6988 18.1585C34.6988 9.02885 27.2956 1.62773 18.1634 1.62773C9.03114 1.62773 1.62793 9.02885 1.62793 18.1585C1.62793 27.2881 9.03114 34.6892 18.1634 34.6892ZM18.1634 35.317C27.6424 35.317 35.3267 27.6348 35.3267 18.1585C35.3267 8.6822 27.6424 1 18.1634 1C8.68439 1 1 8.6822 1 18.1585C1 27.6348 8.68439 35.317 18.1634 35.317Z"/>
<path fill-rule="evenodd" clip-rule="evenodd" d="M17.8912 1.26164L18.4333 1.2587L23.3851 9.62877L22.8445 9.94829L18.1664 2.04064L13.4834 10.1495L12.9396 9.83568L17.8912 1.26164ZM4.0621 26.2147L8.73631 18.3184L8.19594 17.9986L3.24127 26.3687L3.51148 26.8424H32.8148L33.0851 26.3687L28.1304 17.9986L27.59 18.3184L32.2642 26.2147H4.0621Z"/>
<path fill-rule="evenodd" clip-rule="evenodd" d="M18.1634 35.317L33.0271 9.5793H3.29932L18.1634 35.317ZM18.1632 34.0616L31.9396 10.2073H4.38693L18.1632 34.0616Z"/>
<path fill-rule="evenodd" clip-rule="evenodd" d="M18.1632 9.78865L10.9124 22.3436H25.414L18.1632 9.78865ZM18.1632 11.0441L12.0002 21.7159H24.3263L18.1632 11.0441Z"/>
<path fill-rule="evenodd" clip-rule="evenodd" d="M18.3272 18.0081L3.88493 26.7968L3.55843 26.2604L18.0008 17.472L18.3272 18.0081Z"/>
<path fill-rule="evenodd" clip-rule="evenodd" d="M18.0016 18.0092L32.6534 26.7976L32.9764 26.2594L18.3246 17.4708L18.0016 18.0092Z"/>
<path fill-rule="evenodd" clip-rule="evenodd" d="M18.4767 1.20915V17.7399H17.8488V1.20915H18.4767Z"/>
</mask>
<path d="M44.0175 29.8766L45.0724 8.48277H46.2479L55.1395 29.0026L64.0609 8.48277H65.2364L66.1708 29.8766H65.357L64.4226 9.7484L55.6217 29.8766H54.6269L45.8862 9.80855L44.8917 29.8766H44.0175Z" fill="#087A2E"/>
<path d="M82.5502 9.2663H72.2724V18.5771H82.4598V19.3604H72.2724V29.0931H83.0626L82.9119 29.8766H71.368V8.48277H82.5502V9.2663Z" fill="#087A2E"/>
<path d="M101.222 28.7916L101.433 29.4847C101.192 29.6656 100.931 29.7961 100.65 29.8766C100.368 29.9367 100.057 29.9668 99.7153 29.9668C99.0322 29.9668 98.4093 29.8162 97.8465 29.515C97.284 29.1935 96.6712 28.5506 96.008 27.5864L91.2759 20.7164C91.075 20.415 90.7636 20.1138 90.3415 19.8124C89.9197 19.5112 89.3872 19.3604 88.7441 19.3604H87.9907V29.8766H87.0864V8.48277H92.5419C94.712 8.48277 96.3598 8.96487 97.4848 9.92907C98.6303 10.8732 99.203 12.1589 99.203 13.7861C99.203 15.4735 98.6101 16.8293 97.4247 17.8539C96.2591 18.8581 94.6317 19.3604 92.5419 19.3604H90.824C91.1454 19.4809 91.4467 19.6919 91.7281 19.9933C92.0094 20.2945 92.3309 20.7063 92.6925 21.2286L96.4602 26.773C96.9424 27.4559 97.3342 27.9783 97.6357 28.3398C97.9571 28.6813 98.2785 28.9122 98.6002 29.0327C98.9216 29.1532 99.3236 29.2136 99.8058 29.2136C100.087 29.2136 100.338 29.1733 100.559 29.0931C100.8 28.9927 101.021 28.8923 101.222 28.7916ZM92.4514 9.29637H87.9907V18.5771H92.3008C94.2096 18.5771 95.6764 18.1752 96.7013 17.3718C97.7461 16.5681 98.2686 15.4131 98.2686 13.9066C98.2686 12.5205 97.8164 11.4057 96.9124 10.562C96.008 9.7181 94.5211 9.29637 92.4514 9.29637Z" fill="#087A2E"/>
<path d="M103.334 29.8766V8.48277H104.269V18.788L114.999 8.48277H116.235L105.203 19.0291C105.826 19.29 106.459 19.8927 107.102 20.837L111.292 26.9236C111.934 27.8677 112.477 28.4904 112.919 28.7916C113.381 29.0729 113.894 29.2136 114.456 29.2136C114.959 29.2136 115.441 29.0729 115.903 28.7916L116.144 29.4847C115.682 29.8063 115.099 29.9668 114.396 29.9668C113.672 29.9668 113.03 29.7961 112.467 29.4547C111.924 29.0931 111.342 28.4703 110.719 27.5864L106.137 20.9272C105.856 20.5256 105.565 20.2242 105.263 20.0234C104.962 19.8226 104.63 19.702 104.269 19.6618V29.8766H103.334Z" fill="#087A2E"/>
<path d="M116.185 29.8766L124.866 8.48277H125.74L134.059 29.8766H133.094L130.623 23.4282H119.742L117.15 29.8766H116.185ZM120.074 22.6148H130.291L125.318 9.62787L120.074 22.6148Z" fill="#087A2E"/>
<path d="M137.86 29.8766V8.48277H142.05C144.22 8.48277 145.948 8.7037 147.234 9.14577C148.52 9.5675 149.434 10.1903 149.977 11.0138C150.539 11.8175 150.821 12.7916 150.821 13.9367C150.821 15.2222 150.449 16.3172 149.705 17.221C148.982 18.1049 147.917 18.7075 146.51 19.0291C147.937 19.3504 149.042 19.9933 149.826 20.9575C150.63 21.9217 151.031 23.0467 151.031 24.3322C151.031 26.2206 150.439 27.6167 149.253 28.5205C148.088 29.4246 146.51 29.8766 144.521 29.8766H137.86ZM142.019 9.29637H138.764V18.6675H143.135C145.345 18.6675 147.023 18.2858 148.168 17.5224C149.313 16.7389 149.886 15.5438 149.886 13.9367C149.886 12.2693 149.263 11.0841 148.017 10.3811C146.792 9.65795 144.792 9.29637 142.019 9.29637ZM138.764 29.063H144.431C146.179 29.063 147.555 28.6912 148.56 27.948C149.585 27.1848 150.097 25.9795 150.097 24.3322C150.097 22.7452 149.565 21.5499 148.5 20.7465C147.435 19.923 145.918 19.5112 143.948 19.5112H138.764V29.063Z" fill="#087A2E"/>
<path d="M153.772 29.8766L162.453 8.48277H163.327L171.645 29.8766H170.681L168.209 23.4282H157.329L154.737 29.8766H153.772ZM157.66 22.6148H167.878L162.905 9.62787L157.66 22.6148Z" fill="#087A2E"/>
<path d="M175.448 29.8766V8.48277H176.382V18.5468H190.066V8.48277H191V29.8766H190.066V19.3907H176.382V29.8766H175.448Z" fill="#087A2E"/>
<path fill-rule="evenodd" clip-rule="evenodd" d="M18.1634 34.6892C27.2956 34.6892 34.6988 27.2881 34.6988 18.1585C34.6988 9.02885 27.2956 1.62773 18.1634 1.62773C9.03114 1.62773 1.62793 9.02885 1.62793 18.1585C1.62793 27.2881 9.03114 34.6892 18.1634 34.6892ZM18.1634 35.317C27.6424 35.317 35.3267 27.6348 35.3267 18.1585C35.3267 8.6822 27.6424 1 18.1634 1C8.68439 1 1 8.6822 1 18.1585C1 27.6348 8.68439 35.317 18.1634 35.317Z" fill="#087A2E"/>
<path fill-rule="evenodd" clip-rule="evenodd" d="M17.8912 1.26164L18.4333 1.2587L23.3851 9.62877L22.8445 9.94829L18.1664 2.04064L13.4834 10.1495L12.9396 9.83568L17.8912 1.26164ZM4.0621 26.2147L8.73631 18.3184L8.19594 17.9986L3.24127 26.3687L3.51148 26.8424H32.8148L33.0851 26.3687L28.1304 17.9986L27.59 18.3184L32.2642 26.2147H4.0621Z" fill="#087A2E"/>
<path fill-rule="evenodd" clip-rule="evenodd" d="M18.1634 35.317L33.0271 9.5793H3.29932L18.1634 35.317ZM18.1632 34.0616L31.9396 10.2073H4.38693L18.1632 34.0616Z" fill="#087A2E"/>
<path fill-rule="evenodd" clip-rule="evenodd" d="M18.1632 9.78865L10.9124 22.3436H25.414L18.1632 9.78865ZM18.1632 11.0441L12.0002 21.7159H24.3263L18.1632 11.0441Z" fill="#087A2E"/>
<path fill-rule="evenodd" clip-rule="evenodd" d="M18.3272 18.0081L3.88493 26.7968L3.55843 26.2604L18.0008 17.472L18.3272 18.0081Z" fill="#087A2E"/>
<path fill-rule="evenodd" clip-rule="evenodd" d="M18.0016 18.0092L32.6534 26.7976L32.9764 26.2594L18.3246 17.4708L18.0016 18.0092Z" fill="#087A2E"/>
<path fill-rule="evenodd" clip-rule="evenodd" d="M18.4767 1.20915V17.7399H17.8488V1.20915H18.4767Z" fill="#087A2E"/>
<path d="M44.0175 29.8766L43.8177 29.8667L43.8074 30.0766H44.0175V29.8766ZM45.0724 8.48277V8.28277H44.882L44.8727 8.47292L45.0724 8.48277ZM46.2479 8.48277L46.4314 8.40325L46.3792 8.28277H46.2479V8.48277ZM55.1395 29.0026L54.956 29.0821L55.1392 29.5049L55.3229 29.0824L55.1395 29.0026ZM64.0609 8.48277V8.28277H63.9298L63.8775 8.40303L64.0609 8.48277ZM65.2364 8.48277L65.4362 8.47404L65.4279 8.28277H65.2364V8.48277ZM66.1708 29.8766V30.0766H66.3798L66.3706 29.8679L66.1708 29.8766ZM65.357 29.8766L65.1572 29.8859L65.1661 30.0766H65.357V29.8766ZM64.4226 9.7484L64.6224 9.73912L64.2394 9.66827L64.4226 9.7484ZM55.6217 29.8766V30.0766H55.7526L55.805 29.9567L55.6217 29.8766ZM54.6269 29.8766L54.4436 29.9565L54.4959 30.0766H54.6269V29.8766ZM45.8862 9.80855L46.0696 9.72869L45.6865 9.79865L45.8862 9.80855ZM44.8917 29.8766V30.0766H45.082L45.0914 29.8865L44.8917 29.8766ZM82.5502 9.2663V9.4663H82.7502V9.2663H82.5502ZM72.2724 9.2663V9.0663H72.0724V9.2663H72.2724ZM72.2724 18.5771H72.0724V18.7771H72.2724V18.5771ZM82.4598 18.5771H82.6598V18.3771H82.4598V18.5771ZM82.4598 19.3604V19.5604H82.6598V19.3604H82.4598ZM72.2724 19.3604V19.1604H72.0724V19.3604H72.2724ZM72.2724 29.0931H72.0724V29.2931H72.2724V29.0931ZM83.0626 29.0931L83.259 29.1308L83.3047 28.8931H83.0626V29.0931ZM82.9119 29.8766V30.0766H83.0771L83.1083 29.9144L82.9119 29.8766ZM71.368 29.8766H71.168V30.0766H71.368V29.8766ZM71.368 8.48277V8.28277H71.168V8.48277H71.368ZM82.5502 8.48277H82.7502V8.28277H82.5502V8.48277ZM101.222 28.7916L101.414 28.7334L101.345 28.5068L101.133 28.6128L101.222 28.7916ZM101.433 29.4847L101.553 29.6448L101.666 29.5606L101.625 29.4265L101.433 29.4847ZM100.65 29.8766L100.692 30.0726L100.705 30.0689L100.65 29.8766ZM97.8465 29.515L97.7472 29.6887L97.7521 29.6914L97.8465 29.515ZM96.008 27.5864L96.1728 27.473L96.1727 27.4729L96.008 27.5864ZM91.2759 20.7164L91.1094 20.8274L91.1112 20.8299L91.2759 20.7164ZM90.3415 19.8124L90.4577 19.6496L90.4577 19.6496L90.3415 19.8124ZM87.9907 19.3604V19.1604H87.7907V19.3604H87.9907ZM87.9907 29.8766V30.0766H88.1907V29.8766H87.9907ZM87.0864 29.8766H86.8864V30.0766H87.0864V29.8766ZM87.0864 8.48277V8.28277H86.8864V8.48277H87.0864ZM97.4848 9.92907L97.3547 10.081L97.3576 10.0834L97.4848 9.92907ZM97.4247 17.8539L97.5552 18.0054L97.5555 18.0052L97.4247 17.8539ZM90.824 19.3604V19.1604L90.7538 19.5476L90.824 19.3604ZM91.7281 19.9933L91.5819 20.1298L91.5819 20.1298L91.7281 19.9933ZM92.6925 21.2286L92.858 21.1162L92.857 21.1148L92.6925 21.2286ZM96.4602 26.773L96.2948 26.8854L96.2968 26.8884L96.4602 26.773ZM97.6357 28.3398L97.4818 28.4682L97.4901 28.4769L97.6357 28.3398ZM98.6002 29.0327L98.6704 28.8454L98.6704 28.8454L98.6002 29.0327ZM100.559 29.0931L100.628 29.2813L100.636 29.2777L100.559 29.0931ZM87.9907 9.29637V9.09637H87.7907V9.29637H87.9907ZM87.9907 18.5771H87.7907V18.7771H87.9907V18.5771ZM96.7013 17.3718L96.5794 17.2133L96.5779 17.2144L96.7013 17.3718ZM96.9124 10.562L96.7759 10.7082L96.7759 10.7082L96.9124 10.562ZM103.334 29.8766H103.134V30.0766H103.334V29.8766ZM103.334 8.48277V8.28277H103.134V8.48277H103.334ZM104.269 8.48277H104.469V8.28277H104.269V8.48277ZM104.269 18.788H104.069V19.2574L104.407 18.9323L104.269 18.788ZM114.999 8.48277V8.28277H114.918L114.86 8.33852L114.999 8.48277ZM116.235 8.48277L116.373 8.62734L116.733 8.28277H116.235V8.48277ZM105.203 19.0291L105.065 18.8845L104.844 19.0956L105.126 19.2136L105.203 19.0291ZM107.102 20.837L106.937 20.9495L106.937 20.9504L107.102 20.837ZM111.292 26.9236L111.457 26.8111L111.456 26.8102L111.292 26.9236ZM112.919 28.7916L112.806 28.9571L112.815 28.9625L112.919 28.7916ZM115.903 28.7916L116.092 28.7259L116.01 28.4921L115.799 28.6208L115.903 28.7916ZM116.144 29.4847L116.258 29.6489L116.383 29.5623L116.333 29.419L116.144 29.4847ZM112.467 29.4547L112.356 29.6212L112.363 29.6256L112.467 29.4547ZM110.719 27.5864L110.554 27.6998L110.555 27.7016L110.719 27.5864ZM106.137 20.9272L106.302 20.8138L106.301 20.8125L106.137 20.9272ZM105.263 20.0234L105.374 19.8569L105.374 19.8569L105.263 20.0234ZM104.269 19.6618L104.291 19.463L104.069 19.4383V19.6618H104.269ZM104.269 29.8766V30.0766H104.469V29.8766H104.269ZM116.185 29.8766L116 29.8014L115.888 30.0766H116.185V29.8766ZM124.866 8.48277V8.28277H124.731L124.681 8.40757L124.866 8.48277ZM125.74 8.48277L125.927 8.41029L125.877 8.28277H125.74V8.48277ZM134.059 29.8766V30.0766H134.351L134.245 29.8041L134.059 29.8766ZM133.094 29.8766L132.908 29.9482L132.957 30.0766H133.094V29.8766ZM130.623 23.4282L130.81 23.3566L130.76 23.2282H130.623V23.4282ZM119.742 23.4282V23.2282H119.607L119.556 23.3536L119.742 23.4282ZM117.15 29.8766V30.0766H117.285L117.336 29.9512L117.15 29.8766ZM120.074 22.6148L119.888 22.5399L119.777 22.8148H120.074V22.6148ZM130.291 22.6148V22.8148H130.582L130.478 22.5432L130.291 22.6148ZM125.318 9.62787L125.505 9.55635L125.323 9.08152L125.133 9.55298L125.318 9.62787ZM137.86 29.8766H137.66V30.0766H137.86V29.8766ZM137.86 8.48277V8.28277H137.66V8.48277H137.86ZM147.234 9.14577L147.169 9.33493L147.171 9.33582L147.234 9.14577ZM149.977 11.0138L149.81 11.1239L149.813 11.1285L149.977 11.0138ZM149.705 17.221L149.551 17.0939L149.55 17.0943L149.705 17.221ZM146.51 19.0291L146.466 18.8341L146.466 19.2242L146.51 19.0291ZM149.826 20.9575L149.671 21.0836L149.672 21.0856L149.826 20.9575ZM149.253 28.5205L149.132 28.3615L149.13 28.3625L149.253 28.5205ZM138.764 9.29637V9.09637H138.564V9.29637H138.764ZM138.764 18.6675H138.564V18.8675H138.764V18.6675ZM148.168 17.5224L148.279 17.6888L148.281 17.6875L148.168 17.5224ZM148.017 10.3811L147.916 10.5534L147.919 10.5553L148.017 10.3811ZM138.764 29.063H138.564V29.263H138.764V29.063ZM148.56 27.948L148.679 28.1088L148.679 28.1084L148.56 27.948ZM148.5 20.7465L148.377 20.9047L148.379 20.9062L148.5 20.7465ZM138.764 19.5112V19.3112H138.564V19.5112H138.764ZM153.772 29.8766L153.587 29.8014L153.475 30.0766H153.772V29.8766ZM162.453 8.48277V8.28277H162.318L162.267 8.40757L162.453 8.48277ZM163.327 8.48277L163.513 8.41029L163.463 8.28277H163.327V8.48277ZM171.645 29.8766V30.0766H171.938L171.832 29.8041L171.645 29.8766ZM170.681 29.8766L170.494 29.9482L170.543 30.0766H170.681V29.8766ZM168.209 23.4282L168.396 23.3566L168.347 23.2282H168.209V23.4282ZM157.329 23.4282V23.2282H157.194L157.143 23.3536L157.329 23.4282ZM154.737 29.8766V30.0766H154.872L154.922 29.9512L154.737 29.8766ZM157.66 22.6148L157.475 22.5399L157.364 22.8148H157.66V22.6148ZM167.878 22.6148V22.8148H168.169L168.065 22.5432L167.878 22.6148ZM162.905 9.62787L163.092 9.55635L162.91 9.08151L162.719 9.55298L162.905 9.62787ZM175.448 29.8766H175.248V30.0766H175.448V29.8766ZM175.448 8.48277V8.28277H175.248V8.48277H175.448ZM176.382 8.48277H176.582V8.28277H176.382V8.48277ZM176.382 18.5468H176.182V18.7468H176.382V18.5468ZM190.066 18.5468V18.7468H190.266V18.5468H190.066ZM190.066 8.48277V8.28277H189.866V8.48277H190.066ZM191 8.48277H191.2V8.28277H191V8.48277ZM191 29.8766V30.0766H191.2V29.8766H191ZM190.066 29.8766H189.866V30.0766H190.066V29.8766ZM190.066 19.3907H190.266V19.1907H190.066V19.3907ZM176.382 19.3907V19.1907H176.182V19.3907H176.382ZM176.382 29.8766V30.0766H176.582V29.8766H176.382ZM17.8912 1.26164L17.8901 1.06165L17.7753 1.06227L17.718 1.16162L17.8912 1.26164ZM18.4333 1.2587L18.6055 1.15687L18.547 1.05808L18.4323 1.05871L18.4333 1.2587ZM23.3851 9.62877L23.4869 9.80095L23.6591 9.69914L23.5573 9.52694L23.3851 9.62877ZM22.8445 9.94829L22.6724 10.0501L22.7742 10.2222L22.9463 10.1205L22.8445 9.94829ZM18.1664 2.04064L18.3386 1.93881L18.1644 1.64433L17.9932 1.94062L18.1664 2.04064ZM13.4834 10.1495L13.3834 10.3228L13.5566 10.4227L13.6566 10.2496L13.4834 10.1495ZM12.9396 9.83568L12.7664 9.73566L12.6664 9.90889L12.8396 10.0089L12.9396 9.83568ZM4.0621 26.2147L3.88999 26.1128L3.71129 26.4147H4.0621V26.2147ZM8.73631 18.3184L8.90842 18.4202L9.01031 18.2481L8.83816 18.1462L8.73631 18.3184ZM8.19594 17.9986L8.29779 17.8265L8.12569 17.7247L8.02383 17.8967L8.19594 17.9986ZM3.24127 26.3687L3.06917 26.2668L3.00996 26.3668L3.06754 26.4678L3.24127 26.3687ZM3.51148 26.8424L3.33775 26.9415L3.39531 27.0424H3.51148V26.8424ZM32.8148 26.8424V27.0424H32.931L32.9885 26.9415L32.8148 26.8424ZM33.0851 26.3687L33.2588 26.4678L33.3164 26.3668L33.2572 26.2668L33.0851 26.3687ZM28.1304 17.9986L28.3025 17.8967L28.2006 17.7247L28.0285 17.8265L28.1304 17.9986ZM27.59 18.3184L27.4882 18.1462L27.316 18.2481L27.4179 18.4202L27.59 18.3184ZM32.2642 26.2147V26.4147H32.6151L32.4364 26.1128L32.2642 26.2147ZM33.0271 9.5793L33.2003 9.67932L33.3736 9.3793H33.0271V9.5793ZM3.29932 9.5793V9.3793H2.95285L3.12612 9.67932L3.29932 9.5793ZM18.1632 34.0616L17.99 34.1616L18.1632 34.4615L18.3364 34.1616L18.1632 34.0616ZM31.9396 10.2073L32.1128 10.3073L32.2861 10.0073H31.9396V10.2073ZM4.38693 10.2073V10.0073H4.04047L4.21374 10.3073L4.38693 10.2073ZM18.1632 9.78865L18.3364 9.68863L18.1632 9.38874L17.99 9.68863L18.1632 9.78865ZM10.9124 22.3436L10.7393 22.2436L10.566 22.5436H10.9124V22.3436ZM25.414 22.3436V22.5436H25.7605L25.5872 22.2436L25.414 22.3436ZM18.1632 11.0441L18.3364 10.9441L18.1632 10.6442L17.99 10.9441L18.1632 11.0441ZM12.0002 21.7159L11.827 21.6159L11.6537 21.9159H12.0002V21.7159ZM24.3263 21.7159V21.9159H24.6727L24.4994 21.6159L24.3263 21.7159ZM18.3272 18.0081L18.4312 18.179L18.602 18.075L18.498 17.9041L18.3272 18.0081ZM3.88493 26.7968L3.71409 26.9008L3.81807 27.0716L3.9889 26.9676L3.88493 26.7968ZM3.55843 26.2604L3.45446 26.0895L3.28358 26.1935L3.38759 26.3644L3.55843 26.2604ZM18.0008 17.472L18.1716 17.368L18.0676 17.1972L17.8968 17.3011L18.0008 17.472ZM18.0016 18.0092L17.8301 17.9063L17.7272 18.0778L17.8988 18.1807L18.0016 18.0092ZM32.6534 26.7976L32.5505 26.9691L32.722 27.0719L32.8249 26.9005L32.6534 26.7976ZM32.9764 26.2594L33.1479 26.3623L33.2508 26.1908L33.0793 26.0879L32.9764 26.2594ZM18.3246 17.4708L18.4275 17.2992L18.256 17.1964L18.1531 17.3679L18.3246 17.4708ZM18.4767 1.20915H18.6767V1.00915H18.4767V1.20915ZM18.4767 17.7399V17.9399H18.6767V17.7399H18.4767ZM17.8488 17.7399H17.6488V17.9399H17.8488V17.7399ZM17.8488 1.20915V1.00915H17.6488V1.20915H17.8488ZM44.2172 29.8864L45.2722 8.49262L44.8727 8.47292L43.8177 29.8667L44.2172 29.8864ZM45.0724 8.68277H46.2479V8.28277H45.0724V8.68277ZM46.0644 8.56229L54.956 29.0821L55.323 28.9231L46.4314 8.40325L46.0644 8.56229ZM55.3229 29.0824L64.2443 8.56251L63.8775 8.40303L54.9561 28.9229L55.3229 29.0824ZM64.0609 8.68277H65.2364V8.28277H64.0609V8.68277ZM65.0366 8.4915L65.971 29.8853L66.3706 29.8679L65.4362 8.47404L65.0366 8.4915ZM66.1708 29.6766H65.357V30.0766H66.1708V29.6766ZM65.5568 29.8673L64.6224 9.73912L64.2228 9.75767L65.1572 29.8859L65.5568 29.8673ZM64.2394 9.66827L55.4385 29.7965L55.805 29.9567L64.6058 9.82852L64.2394 9.66827ZM55.6217 29.6766H54.6269V30.0766H55.6217V29.6766ZM54.8103 29.7967L46.0696 9.72869L45.7029 9.88842L54.4436 29.9565L54.8103 29.7967ZM45.6865 9.79865L44.6919 29.8667L45.0914 29.8865L46.086 9.81845L45.6865 9.79865ZM44.8917 29.6766H44.0175V30.0766H44.8917V29.6766ZM82.5502 9.0663H72.2724V9.4663H82.5502V9.0663ZM72.0724 9.2663V18.5771H72.4724V9.2663H72.0724ZM72.2724 18.7771H82.4598V18.3771H72.2724V18.7771ZM82.2598 18.5771V19.3604H82.6598V18.5771H82.2598ZM82.4598 19.1604H72.2724V19.5604H82.4598V19.1604ZM72.0724 19.3604V29.0931H72.4724V19.3604H72.0724ZM72.2724 29.2931H83.0626V28.8931H72.2724V29.2931ZM82.8662 29.0553L82.7155 29.8388L83.1083 29.9144L83.259 29.1308L82.8662 29.0553ZM82.9119 29.6766H71.368V30.0766H82.9119V29.6766ZM71.568 29.8766V8.48277H71.168V29.8766H71.568ZM71.368 8.68277H82.5502V8.28277H71.368V8.68277ZM82.3502 8.48277V9.2663H82.7502V8.48277H82.3502ZM101.031 28.8499L101.242 29.543L101.625 29.4265L101.414 28.7334L101.031 28.8499ZM101.314 29.3247C101.091 29.4914 100.852 29.6107 100.595 29.6843L100.705 30.0689C101.01 29.9815 101.293 29.8398 101.553 29.6448L101.314 29.3247ZM100.608 29.681C100.343 29.7377 100.045 29.7668 99.7153 29.7668V30.1668C100.068 30.1668 100.394 30.1358 100.692 30.0722L100.608 29.681ZM99.7153 29.7668C99.0628 29.7668 98.4726 29.6233 97.9409 29.3387L97.7521 29.6914C98.346 30.0092 99.0017 30.1668 99.7153 30.1668V29.7668ZM97.9458 29.3414C97.4227 29.0424 96.8306 28.4294 96.1728 27.473L95.8433 27.6997C96.5119 28.6718 97.1453 29.3446 97.7473 29.6887L97.9458 29.3414ZM96.1727 27.4729L91.4406 20.603L91.1112 20.8299L95.8433 27.6998L96.1727 27.4729ZM91.4423 20.6055C91.2235 20.2772 90.8917 19.9595 90.4577 19.6496L90.2253 19.9751C90.6355 20.2681 90.9265 20.5528 91.1095 20.8273L91.4423 20.6055ZM90.4577 19.6496C89.9946 19.3189 89.4188 19.1604 88.7441 19.1604V19.5604C89.3556 19.5604 89.8447 19.7034 90.2253 19.9752L90.4577 19.6496ZM88.7441 19.1604H87.9907V19.5604H88.7441V19.1604ZM87.7907 19.3604V29.8766H88.1907V19.3604H87.7907ZM87.9907 29.6766H87.0864V30.0766H87.9907V29.6766ZM87.2864 29.8766V8.48277H86.8864V29.8766H87.2864ZM87.0864 8.68277H92.5419V8.28277H87.0864V8.68277ZM92.5419 8.68277C94.6859 8.68277 96.2795 9.15946 97.3547 10.0809L97.615 9.77721C96.4401 8.77029 94.7381 8.28277 92.5419 8.28277V8.68277ZM97.3576 10.0834C98.4522 10.9855 99.003 12.2121 99.003 13.7861H99.403C99.403 12.1057 98.8084 10.7608 97.612 9.77474L97.3576 10.0834ZM99.003 13.7861C99.003 15.4204 98.4317 16.7192 97.2939 17.7026L97.5555 18.0052C98.7886 16.9395 99.403 15.5265 99.403 13.7861H99.003ZM97.2941 17.7024C96.1761 18.6657 94.601 19.1604 92.5419 19.1604V19.5604C94.6624 19.5604 96.3421 19.0506 97.5552 18.0054L97.2941 17.7024ZM92.5419 19.1604H90.824V19.5604H92.5419V19.1604ZM90.7538 19.5476C91.041 19.6553 91.3173 19.8464 91.5819 20.1298L91.8743 19.8568C91.576 19.5373 91.2498 19.3064 90.8942 19.1731L90.7538 19.5476ZM91.5819 20.1298C91.8541 20.4212 92.1693 20.8243 92.5281 21.3425L92.857 21.1148C92.4924 20.5882 92.1648 20.1678 91.8742 19.8568L91.5819 20.1298ZM92.5271 21.341L96.2948 26.8854L96.6256 26.6606L92.858 21.1162L92.5271 21.341ZM96.2968 26.8884C96.7802 27.5728 97.1755 28.1003 97.4821 28.4679L97.7893 28.2118C97.4929 27.8563 97.1047 27.339 96.6236 26.6576L96.2968 26.8884ZM97.4901 28.4769C97.8252 28.833 98.1712 29.0855 98.53 29.22L98.6704 28.8454C98.3859 28.7388 98.089 28.5296 97.7813 28.2028L97.4901 28.4769ZM98.53 29.22C98.8809 29.3516 99.3085 29.4136 99.8058 29.4136V29.0136C99.3386 29.0136 98.9623 28.9549 98.6704 28.8454L98.53 29.22ZM99.8058 29.4136C100.106 29.4136 100.381 29.3707 100.628 29.2811L100.491 28.9051C100.296 28.976 100.068 29.0136 99.8058 29.0136V29.4136ZM100.636 29.2777C100.881 29.1758 101.106 29.0735 101.312 28.9705L101.133 28.6128C100.937 28.711 100.72 28.8095 100.482 28.9084L100.636 29.2777ZM92.4514 9.09637H87.9907V9.49637H92.4514V9.09637ZM87.7907 9.29637V18.5771H88.1907V9.29637H87.7907ZM87.9907 18.7771H92.3008V18.3771H87.9907V18.7771ZM92.3008 18.7771C94.2343 18.7771 95.7515 18.3705 96.8247 17.5292L96.5779 17.2144C95.6013 17.98 94.1849 18.3771 92.3008 18.3771V18.7771ZM96.8233 17.5303C97.9247 16.6831 98.4686 15.4651 98.4686 13.9066H98.0686C98.0686 15.3611 97.5675 16.4532 96.5794 17.2133L96.8233 17.5303ZM98.4686 13.9066C98.4686 12.4724 97.9985 11.3021 97.0488 10.4158L96.7759 10.7082C97.6343 11.5093 98.0686 12.5685 98.0686 13.9066H98.4686ZM97.0488 10.4158C96.0894 9.52042 94.5398 9.09637 92.4514 9.09637V9.49637C94.5023 9.49637 95.9267 9.91578 96.7759 10.7082L97.0488 10.4158ZM103.534 29.8766V8.48277H103.134V29.8766H103.534ZM103.334 8.68277H104.269V8.28277H103.334V8.68277ZM104.069 8.48277V18.788H104.469V8.48277H104.069ZM104.407 18.9323L115.137 8.62702L114.86 8.33852L104.13 18.6438L104.407 18.9323ZM114.999 8.68277H116.235V8.28277H114.999V8.68277ZM116.096 8.33821L105.065 18.8845L105.341 19.1737L116.373 8.62734L116.096 8.33821ZM105.126 19.2136C105.696 19.4524 106.302 20.0175 106.937 20.9495L107.267 20.7244C106.616 19.7678 105.956 19.1276 105.28 18.8446L105.126 19.2136ZM106.937 20.9504L111.127 27.037L111.456 26.8102L107.267 20.7236L106.937 20.9504ZM111.126 27.0362C111.771 27.9828 112.331 28.633 112.806 28.9569L113.032 28.6264C112.623 28.3479 112.098 27.7526 111.457 26.8111L111.126 27.0362ZM112.815 28.9625C113.31 29.2636 113.859 29.4136 114.456 29.4136V29.0136C113.929 29.0136 113.452 28.8822 113.023 28.6208L112.815 28.9625ZM114.456 29.4136C114.998 29.4136 115.516 29.2613 116.007 28.9625L115.799 28.6208C115.366 28.8846 114.919 29.0136 114.456 29.0136V29.4136ZM115.714 28.8574L115.955 29.5504L116.333 29.419L116.092 28.7259L115.714 28.8574ZM116.03 29.3206C115.609 29.6135 115.069 29.7668 114.396 29.7668V30.1668C115.13 30.1668 115.755 29.999 116.258 29.6489L116.03 29.3206ZM114.396 29.7668C113.705 29.7668 113.099 29.6043 112.571 29.2837L112.363 29.6256C112.96 29.9879 113.64 30.1668 114.396 30.1668V29.7668ZM112.578 29.2882C112.065 28.9464 111.499 28.3465 110.882 27.4712L110.555 27.7016C111.184 28.5942 111.784 29.2397 112.356 29.6211L112.578 29.2882ZM110.884 27.473L106.302 20.8138L105.973 21.0406L110.554 27.6998L110.884 27.473ZM106.301 20.8125C106.01 20.3972 105.702 20.0755 105.374 19.8569L105.152 20.1898C105.427 20.3729 105.702 20.6539 105.974 21.0419L106.301 20.8125ZM105.374 19.8569C105.046 19.6383 104.684 19.5068 104.291 19.463L104.247 19.8606C104.577 19.8973 104.878 20.0068 105.153 20.1898L105.374 19.8569ZM104.069 19.6618V29.8766H104.469V19.6618H104.069ZM104.269 29.6766H103.334V30.0766H104.269V29.6766ZM116.371 29.9518L125.051 8.55797L124.681 8.40757L116 29.8014L116.371 29.9518ZM124.866 8.68277H125.74V8.28277H124.866V8.68277ZM125.554 8.55525L133.872 29.9491L134.245 29.8041L125.927 8.41029L125.554 8.55525ZM134.059 29.6766H133.094V30.0766H134.059V29.6766ZM133.281 29.805L130.81 23.3566L130.436 23.4997L132.908 29.9482L133.281 29.805ZM130.623 23.2282H119.742V23.6282H130.623V23.2282ZM119.556 23.3536L116.964 29.802L117.336 29.9512L119.928 23.5027L119.556 23.3536ZM117.15 29.6766H116.185V30.0766H117.15V29.6766ZM120.074 22.8148H130.291V22.4148H120.074V22.8148ZM130.478 22.5432L125.505 9.55635L125.131 9.6994L130.105 22.6863L130.478 22.5432ZM125.133 9.55298L119.888 22.5399L120.259 22.6897L125.503 9.70276L125.133 9.55298ZM138.06 29.8766V8.48277H137.66V29.8766H138.06ZM137.86 8.68277H142.05V8.28277H137.86V8.68277ZM142.05 8.68277C144.209 8.68277 145.912 8.90301 147.169 9.33491L147.299 8.95664C145.983 8.50438 144.23 8.28277 142.05 8.28277V8.68277ZM147.171 9.33582C148.43 9.74865 149.3 10.3499 149.81 11.1238L150.144 10.9038C149.568 10.0306 148.609 9.38635 147.296 8.95573L147.171 9.33582ZM149.813 11.1285C150.348 11.8932 150.621 12.8256 150.621 13.9367H151.021C151.021 12.7576 150.73 11.7417 150.14 10.8991L149.813 11.1285ZM150.621 13.9367C150.621 15.1808 150.262 16.2295 149.551 17.0939L149.86 17.348C150.636 16.4048 151.021 15.2637 151.021 13.9367H150.621ZM149.55 17.0943C148.862 17.9357 147.841 18.5198 146.466 18.8341L146.555 19.2241C147.993 18.8953 149.102 18.2741 149.86 17.3476L149.55 17.0943ZM146.466 19.2242C147.857 19.5375 148.92 20.1602 149.671 21.0836L149.981 20.8314C149.164 19.8264 148.017 19.1633 146.554 18.834L146.466 19.2242ZM149.672 21.0856C150.445 22.0129 150.831 23.0922 150.831 24.3322H151.231C151.231 23.0011 150.814 21.8305 149.979 20.8294L149.672 21.0856ZM150.831 24.3322C150.831 26.1765 150.255 27.5053 149.132 28.3615L149.374 28.6796C150.623 27.728 151.231 26.2646 151.231 24.3322H150.831ZM149.13 28.3625C148.011 29.2312 146.481 29.6766 144.521 29.6766V30.0766C146.539 30.0766 148.165 29.6179 149.376 28.6785L149.13 28.3625ZM144.521 29.6766H137.86V30.0766H144.521V29.6766ZM142.019 9.09637H138.764V9.49637H142.019V9.09637ZM138.564 9.29637V18.6675H138.964V9.29637H138.564ZM138.764 18.8675H143.135V18.4675H138.764V18.8675ZM143.135 18.8675C145.363 18.8675 147.087 18.4837 148.279 17.6888L148.057 17.356C146.959 18.0879 145.327 18.4675 143.135 18.4675V18.8675ZM148.281 17.6875C149.49 16.8603 150.086 15.5978 150.086 13.9367H149.686C149.686 15.4898 149.137 16.6174 148.055 17.3573L148.281 17.6875ZM150.086 13.9367C150.086 12.2114 149.436 10.9519 148.116 10.2069L147.919 10.5553C149.091 11.2163 149.686 12.3271 149.686 13.9367H150.086ZM148.119 10.2088C146.845 9.45721 144.8 9.09637 142.019 9.09637V9.49637C144.785 9.49637 146.738 9.85868 147.916 10.5534L148.119 10.2088ZM138.764 29.263H144.431V28.863H138.764V29.263ZM144.431 29.263C146.205 29.263 147.628 28.8859 148.679 28.1088L148.441 27.7872C147.482 28.4966 146.153 28.863 144.431 28.863V29.263ZM148.679 28.1084C149.769 27.2969 150.297 26.0227 150.297 24.3322H149.897C149.897 25.9364 149.4 27.0727 148.441 27.7876L148.679 28.1084ZM150.297 24.3322C150.297 22.6959 149.745 21.4355 148.62 20.5869L148.379 20.9062C149.384 21.6644 149.897 22.7946 149.897 24.3322H150.297ZM148.622 20.5883C147.509 19.7277 145.942 19.3112 143.948 19.3112V19.7112C145.893 19.7112 147.36 20.1183 148.377 20.9047L148.622 20.5883ZM143.948 19.3112H138.764V19.7112H143.948V19.3112ZM138.564 19.5112V29.063H138.964V19.5112H138.564ZM153.957 29.9518L162.638 8.55797L162.267 8.40757L153.587 29.8014L153.957 29.9518ZM162.453 8.68277H163.327V8.28277H162.453V8.68277ZM163.14 8.55525L171.459 29.9491L171.832 29.8041L163.513 8.41029L163.14 8.55525ZM171.645 29.6766H170.681V30.0766H171.645V29.6766ZM170.868 29.805L168.396 23.3566L168.023 23.4997L170.494 29.9482L170.868 29.805ZM168.209 23.2282H157.329V23.6282H168.209V23.2282ZM157.143 23.3536L154.551 29.802L154.922 29.9512L157.514 23.5027L157.143 23.3536ZM154.737 29.6766H153.772V30.0766H154.737V29.6766ZM157.66 22.8148H167.878V22.4148H157.66V22.8148ZM168.065 22.5432L163.092 9.55635L162.718 9.6994L167.691 22.6863L168.065 22.5432ZM162.719 9.55298L157.475 22.5399L157.846 22.6897L163.09 9.70276L162.719 9.55298ZM175.648 29.8766V8.48277H175.248V29.8766H175.648ZM175.448 8.68277H176.382V8.28277H175.448V8.68277ZM176.182 8.48277V18.5468H176.582V8.48277H176.182ZM176.382 18.7468H190.066V18.3468H176.382V18.7468ZM190.266 18.5468V8.48277H189.866V18.5468H190.266ZM190.066 8.68277H191V8.28277H190.066V8.68277ZM190.8 8.48277V29.8766H191.2V8.48277H190.8ZM191 29.6766H190.066V30.0766H191V29.6766ZM190.266 29.8766V19.3907H189.866V29.8766H190.266ZM190.066 19.1907H176.382V19.5907H190.066V19.1907ZM176.182 19.3907V29.8766H176.582V19.3907H176.182ZM176.382 29.6766H175.448V30.0766H176.382V29.6766ZM18.1634 34.8892C27.406 34.8892 34.8988 27.3986 34.8988 18.1585H34.4988C34.4988 27.1776 27.1852 34.4892 18.1634 34.4892V34.8892ZM34.8988 18.1585C34.8988 8.91834 27.406 1.42773 18.1634 1.42773V1.82773C27.1852 1.82773 34.4988 9.13936 34.4988 18.1585H34.8988ZM18.1634 1.42773C8.92074 1.42773 1.42793 8.91834 1.42793 18.1585H1.82793C1.82793 9.13936 9.14154 1.82773 18.1634 1.82773V1.42773ZM1.42793 18.1585C1.42793 27.3986 8.92074 34.8892 18.1634 34.8892V34.4892C9.14154 34.4892 1.82793 27.1776 1.82793 18.1585H1.42793ZM18.1634 35.517C27.7528 35.517 35.5267 27.7453 35.5267 18.1585H35.1267C35.1267 27.5243 27.532 35.117 18.1634 35.117V35.517ZM35.5267 18.1585C35.5267 8.57169 27.7528 0.8 18.1634 0.8V1.2C27.532 1.2 35.1267 8.79271 35.1267 18.1585H35.5267ZM18.1634 0.8C8.57399 0.8 0.8 8.57169 0.8 18.1585H1.2C1.2 8.79271 8.79479 1.2 18.1634 1.2V0.8ZM0.8 18.1585C0.8 27.7453 8.57399 35.517 18.1634 35.517V35.117C8.79479 35.117 1.2 27.5243 1.2 18.1585H0.8ZM17.8922 1.46164L18.4344 1.4587L18.4323 1.05871L17.8901 1.06165L17.8922 1.46164ZM18.2612 1.36054L23.213 9.73061L23.5573 9.52694L18.6055 1.15687L18.2612 1.36054ZM23.2834 9.4566L22.7428 9.77611L22.9463 10.1205L23.4869 9.80095L23.2834 9.4566ZM23.0167 9.84646L18.3386 1.93881L17.9943 2.14248L22.6724 10.0501L23.0167 9.84646ZM17.9932 1.94062L13.3102 10.0495L13.6566 10.2496L18.3396 2.14067L17.9932 1.94062ZM13.5834 9.97633L13.0396 9.66246L12.8396 10.0089L13.3834 10.3228L13.5834 9.97633ZM13.1128 9.9357L18.0644 1.36166L17.718 1.16162L12.7664 9.73566L13.1128 9.9357ZM4.2342 26.3166L8.90842 18.4202L8.5642 18.2165L3.88999 26.1128L4.2342 26.3166ZM8.83816 18.1462L8.29779 17.8265L8.09409 18.1707L8.63446 18.4905L8.83816 18.1462ZM8.02383 17.8967L3.06917 26.2668L3.41338 26.4706L8.36805 18.1005L8.02383 17.8967ZM3.06754 26.4678L3.33775 26.9415L3.68521 26.7433L3.415 26.2696L3.06754 26.4678ZM3.51148 27.0424H32.8148V26.6424H3.51148V27.0424ZM32.9885 26.9415L33.2588 26.4678L32.9114 26.2696L32.6411 26.7433L32.9885 26.9415ZM33.2572 26.2668L28.3025 17.8967L27.9583 18.1005L32.913 26.4706L33.2572 26.2668ZM28.0285 17.8265L27.4882 18.1462L27.6919 18.4905L28.2322 18.1707L28.0285 17.8265ZM27.4179 18.4202L32.0921 26.3166L32.4364 26.1128L27.7621 18.2165L27.4179 18.4202ZM32.2642 26.0147H4.0621V26.4147H32.2642V26.0147ZM18.3366 35.417L33.2003 9.67932L32.854 9.47927L17.9902 35.2169L18.3366 35.417ZM33.0271 9.3793H3.29932V9.7793H33.0271V9.3793ZM3.12612 9.67932L17.9902 35.417L18.3366 35.2169L3.47251 9.47927L3.12612 9.67932ZM18.3364 34.1616L32.1128 10.3073L31.7664 10.1072L17.99 33.9615L18.3364 34.1616ZM31.9396 10.0073H4.38693V10.4073H31.9396V10.0073ZM4.21374 10.3073L17.99 34.1616L18.3364 33.9615L4.56013 10.1072L4.21374 10.3073ZM17.99 9.68863L10.7393 22.2436L11.0856 22.4437L18.3364 9.88867L17.99 9.68863ZM10.9124 22.5436H25.414V22.1436H10.9124V22.5436ZM25.5872 22.2436L18.3364 9.68863L17.99 9.88867L25.2408 22.4437L25.5872 22.2436ZM17.99 10.9441L11.827 21.6159L12.1734 21.8159L18.3364 11.1441L17.99 10.9441ZM12.0002 21.9159H24.3263V21.5159H12.0002V21.9159ZM24.4994 21.6159L18.3364 10.9441L17.99 11.1441L24.1531 21.8159L24.4994 21.6159ZM18.2232 17.8373L3.78096 26.6259L3.9889 26.9676L18.4312 18.179L18.2232 17.8373ZM4.05577 26.6928L3.72926 26.1564L3.38759 26.3644L3.71409 26.9008L4.05577 26.6928ZM3.66239 26.4312L18.1048 17.6428L17.8968 17.3011L3.45446 26.0895L3.66239 26.4312ZM17.83 17.576L18.1563 18.1121L18.498 17.9041L18.1716 17.368L17.83 17.576ZM17.8988 18.1807L32.5505 26.9691L32.7563 26.6261L18.1045 17.8377L17.8988 18.1807ZM32.8249 26.9005L33.1479 26.3623L32.8049 26.1565L32.4819 26.6947L32.8249 26.9005ZM33.0793 26.0879L18.4275 17.2992L18.2218 17.6423L32.8735 26.4309L33.0793 26.0879ZM18.1531 17.3679L17.8301 17.9063L18.1732 18.1121L18.4962 17.5736L18.1531 17.3679ZM18.2767 1.20915V17.7399H18.6767V1.20915H18.2767ZM18.4767 17.5399H17.8488V17.9399H18.4767V17.5399ZM18.0488 17.7399V1.20915H17.6488V17.7399H18.0488ZM17.8488 1.40915H18.4767V1.00915H17.8488V1.40915Z" fill="#087A2E" mask="url(#path-1-outside-1_612_313)"/>
</svg>
