<svg width="36" height="36" viewBox="0 0 36 36" fill="none" xmlns="http://www.w3.org/2000/svg">
<path fill-rule="evenodd" clip-rule="evenodd" d="M18.1634 34.6892C27.2956 34.6892 34.6988 27.2881 34.6988 18.1585C34.6988 9.02885 27.2956 1.62773 18.1634 1.62773C9.03114 1.62773 1.62793 9.02885 1.62793 18.1585C1.62793 27.2881 9.03114 34.6892 18.1634 34.6892ZM18.1634 35.317C27.6424 35.317 35.3267 27.6348 35.3267 18.1585C35.3267 8.6822 27.6424 1 18.1634 1C8.68439 1 1 8.6822 1 18.1585C1 27.6348 8.68439 35.317 18.1634 35.317Z" fill="#087A2E"/>
<path fill-rule="evenodd" clip-rule="evenodd" d="M17.8912 1.26164L18.4333 1.2587L23.3851 9.62877L22.8445 9.94829L18.1664 2.04064L13.4834 10.1495L12.9396 9.83568L17.8912 1.26164ZM4.0621 26.2147L8.73631 18.3184L8.19594 17.9986L3.24127 26.3687L3.51148 26.8424H32.8148L33.0851 26.3687L28.1304 17.9986L27.59 18.3184L32.2642 26.2147H4.0621Z" fill="#087A2E"/>
<path fill-rule="evenodd" clip-rule="evenodd" d="M18.1634 35.317L33.0271 9.5793H3.29932L18.1634 35.317ZM18.1632 34.0616L31.9396 10.2073H4.38693L18.1632 34.0616Z" fill="#087A2E"/>
<path fill-rule="evenodd" clip-rule="evenodd" d="M18.1632 9.78865L10.9124 22.3436H25.414L18.1632 9.78865ZM18.1632 11.0441L12.0002 21.7159H24.3263L18.1632 11.0441Z" fill="#087A2E"/>
<path fill-rule="evenodd" clip-rule="evenodd" d="M18.3272 18.0081L3.88493 26.7968L3.55843 26.2604L18.0008 17.472L18.3272 18.0081Z" fill="#087A2E"/>
<path fill-rule="evenodd" clip-rule="evenodd" d="M18.0016 18.0092L32.6534 26.7976L32.9764 26.2594L18.3246 17.4708L18.0016 18.0092Z" fill="#087A2E"/>
<path fill-rule="evenodd" clip-rule="evenodd" d="M18.4767 1.20915V17.7399H17.8488V1.20915H18.4767Z" fill="#087A2E"/>
<path fill-rule="evenodd" clip-rule="evenodd" d="M18.1634 34.6892C27.2956 34.6892 34.6988 27.2881 34.6988 18.1585C34.6988 9.02885 27.2956 1.62773 18.1634 1.62773C9.03114 1.62773 1.62793 9.02885 1.62793 18.1585C1.62793 27.2881 9.03114 34.6892 18.1634 34.6892ZM18.1634 35.317C27.6424 35.317 35.3267 27.6348 35.3267 18.1585C35.3267 8.6822 27.6424 1 18.1634 1C8.68439 1 1 8.6822 1 18.1585C1 27.6348 8.68439 35.317 18.1634 35.317Z" fill="#087A2E"/>
<path fill-rule="evenodd" clip-rule="evenodd" d="M17.8912 1.26164L18.4333 1.2587L23.3851 9.62877L22.8445 9.94829L18.1664 2.04064L13.4834 10.1495L12.9396 9.83568L17.8912 1.26164ZM4.0621 26.2147L8.73631 18.3184L8.19594 17.9986L3.24127 26.3687L3.51148 26.8424H32.8148L33.0851 26.3687L28.1304 17.9986L27.59 18.3184L32.2642 26.2147H4.0621Z" fill="#087A2E"/>
<path fill-rule="evenodd" clip-rule="evenodd" d="M18.1634 35.317L33.0271 9.5793H3.29932L18.1634 35.317ZM18.1632 34.0616L31.9396 10.2073H4.38693L18.1632 34.0616Z" fill="#087A2E"/>
<path fill-rule="evenodd" clip-rule="evenodd" d="M18.1632 9.78865L10.9124 22.3436H25.414L18.1632 9.78865ZM18.1632 11.0441L12.0002 21.7159H24.3263L18.1632 11.0441Z" fill="#087A2E"/>
<path fill-rule="evenodd" clip-rule="evenodd" d="M18.3272 18.0081L3.88493 26.7968L3.55843 26.2604L18.0008 17.472L18.3272 18.0081Z" fill="#087A2E"/>
<path fill-rule="evenodd" clip-rule="evenodd" d="M18.0016 18.0092L32.6534 26.7976L32.9764 26.2594L18.3246 17.4708L18.0016 18.0092Z" fill="#087A2E"/>
<path fill-rule="evenodd" clip-rule="evenodd" d="M18.4767 1.20915V17.7399H17.8488V1.20915H18.4767Z" fill="#087A2E"/>
<path d="M18.1634 35.317C27.6424 35.317 35.3267 27.6348 35.3267 18.1585C35.3267 8.6822 27.6424 1 18.1634 1C8.68439 1 1 8.6822 1 18.1585C1 27.6348 8.68439 35.317 18.1634 35.317ZM18.1634 35.317L33.0271 9.5793H3.29932L18.1634 35.317ZM18.1634 34.6892C27.2956 34.6892 34.6988 27.2881 34.6988 18.1585C34.6988 9.02885 27.2956 1.62773 18.1634 1.62773C9.03114 1.62773 1.62793 9.02885 1.62793 18.1585C1.62793 27.2881 9.03114 34.6892 18.1634 34.6892ZM17.8912 1.26164L18.4333 1.2587L23.3851 9.62877L22.8445 9.94829L18.1664 2.04064L13.4834 10.1495L12.9396 9.83568L17.8912 1.26164ZM4.0621 26.2147L8.73631 18.3184L8.19594 17.9986L3.24127 26.3687L3.51148 26.8424H32.8148L33.0851 26.3687L28.1304 17.9986L27.59 18.3184L32.2642 26.2147H4.0621ZM18.1632 34.0616L31.9396 10.2073H4.38693L18.1632 34.0616ZM18.1632 9.78865L10.9124 22.3436H25.414L18.1632 9.78865ZM18.1632 11.0441L12.0002 21.7159H24.3263L18.1632 11.0441ZM18.3272 18.0081L3.88493 26.7968L3.55843 26.2604L18.0008 17.472L18.3272 18.0081ZM18.0016 18.0092L32.6534 26.7976L32.9764 26.2594L18.3246 17.4708L18.0016 18.0092ZM18.4767 1.20915V17.7399H17.8488V1.20915H18.4767Z" stroke="#087A2E" stroke-width="0.2"/>
</svg>
